<svg width="53" height="40" viewBox="0 0 53 40" fill="none" xmlns="http://www.w3.org/2000/svg">
<path d="M45.1211 32.935C45.1211 35.7952 43.3516 38.1353 41.1398 38.1353C38.928 38.1353 37.1584 35.7952 37.1584 32.935C37.1584 30.0749 38.928 27.7347 41.1398 27.7347C43.3516 27.7347 45.1211 30.0749 45.1211 32.935Z" fill="#FECC00"/>
<path d="M13.3598 32.935C13.3598 35.7952 11.5902 38.1353 9.37843 38.1353C7.16661 38.1353 5.39709 35.7952 5.39709 32.935C5.39709 30.0749 7.16661 27.7347 9.37843 27.7347C11.5902 27.7347 13.3598 30.0749 13.3598 32.935Z" fill="#FECC00"/>
<path d="M50.3151 16.4674H45.0066L37.6632 8.49362C37.3094 8.06022 36.69 7.80021 36.1591 7.80021H26.427V3.37996C26.427 1.99325 25.2768 0.866455 23.8612 0.866455H5.10485C3.68929 0.866455 2.53906 1.99315 2.53906 3.37996V22.5344H26.4271V32.935H36.1592C36.1592 30.0748 38.548 27.7347 41.4677 27.7347C44.3873 27.7347 46.7761 30.0748 46.7761 32.935H50.0496C50.6689 32.935 51.1998 32.4149 51.1998 31.8083V18.1142C51.1999 17.5941 50.669 16.8141 50.3151 16.4674Z" fill="white"/>
<path d="M28.3117 23.4013H0V3.38019C0 1.47345 1.50409 0 3.45049 0H24.9497C26.8076 0 28.3117 1.47345 28.3117 3.38019V23.4013ZM1.76952 21.6678H26.5422V3.38019C26.5422 2.51351 25.8344 1.73346 24.8612 1.73346H3.45049C2.47724 1.73346 1.76952 2.42687 1.76952 3.38019V21.6678Z" fill="white"/>
<path d="M42.4673 39.0021C39.0168 39.0021 36.2742 36.3153 36.2742 32.9351C36.2742 29.5549 39.0168 26.8682 42.4673 26.8682C45.9178 26.8682 48.6605 29.5549 48.6605 32.9351C48.6605 36.3153 45.9178 39.0021 42.4673 39.0021ZM42.4673 28.6015C39.9901 28.6015 38.0436 30.5083 38.0436 32.9351C38.0436 35.362 39.99 37.2687 42.4673 37.2687C44.9446 37.2687 46.8911 35.362 46.8911 32.9351C46.8911 30.5083 44.9446 28.6015 42.4673 28.6015Z" fill="white"/>
<path d="M10.6172 39.0021C7.16673 39.0021 4.42407 36.3153 4.42407 32.9351C4.42407 29.5549 7.16673 26.8682 10.6172 26.8682C14.0677 26.8682 16.8104 29.5549 16.8104 32.9351C16.8104 36.3153 14.0677 39.0021 10.6172 39.0021ZM10.6172 28.6015C8.13998 28.6015 6.19348 30.5083 6.19348 32.9351C6.19348 35.362 8.13988 37.2687 10.6172 37.2687C13.0946 37.2687 15.041 35.362 15.041 32.9351C15.041 30.5083 13.0945 28.6015 10.6172 28.6015Z" fill="white"/>
<path d="M51.758 23.4013H36.7173C36.1865 23.4013 35.8326 23.0547 35.8326 22.5346C35.8326 22.0146 36.1865 21.668 36.7173 21.668H51.758C52.2888 21.668 52.6427 22.0146 52.6427 22.5346C52.6427 23.0546 52.2888 23.4013 51.758 23.4013Z" fill="white"/>
<path d="M14.1558 15.6008H0.884706C0.353862 15.6008 0 15.2541 0 14.7341C0 14.2141 0.353862 13.8674 0.884706 13.8674H14.1558C14.6867 13.8674 15.0405 14.2141 15.0405 14.7341C15.0406 15.254 14.6867 15.6008 14.1558 15.6008Z" fill="white"/>
<path d="M10.6169 11.2671H0.884706C0.353862 11.2671 0 10.9204 0 10.4004C0 9.88034 0.353862 9.53369 0.884706 9.53369H10.6169C11.1477 9.53369 11.5016 9.88034 11.5016 10.4004C11.5016 10.9204 11.1477 11.2671 10.6169 11.2671Z" fill="white"/>
<path d="M48.253 33.8019H44.891V32.9353C44.891 30.5085 42.9446 28.6017 40.4672 28.6017C37.99 28.6017 36.0435 30.5084 36.0435 32.9353V33.8019H24.542V6.93372H35.4243C36.663 6.93372 37.7247 7.45375 38.5209 8.40717L44.3602 15.6009L44.4487 15.6876H48.1646C49.7571 15.6876 50.9958 16.9876 50.9958 18.4611V31.0284C51.0842 32.5019 49.7571 33.8019 48.253 33.8019ZM46.572 32.0685H48.1646C48.7839 32.0685 49.2263 31.5485 49.2263 30.9418V18.4611C49.2263 17.8544 48.6954 17.421 48.1646 17.421H44.4487C43.8294 17.421 43.2985 17.161 42.9446 16.7276L37.1053 9.53386C36.7514 8.92719 36.132 8.66718 35.4243 8.66718H26.3115V32.0685H34.3626C34.805 29.1217 37.3707 26.8682 40.4673 26.8682C43.564 26.8682 46.1296 29.1217 46.572 32.0685Z" fill="white"/>
<path d="M28.3117 33.802H15.0406V32.9353C15.0406 30.5086 13.0942 28.6017 10.6169 28.6017C8.13954 28.6017 6.19315 30.5085 6.19315 32.9353V33.802H2.65422C1.15013 33.802 0 32.6753 0 31.2019V21.668H28.3117V33.802ZM16.7216 32.0685H26.5422V23.4014H1.76952V31.2019C1.76952 31.7219 2.12338 32.0685 2.65422 32.0685H4.51218C4.95458 29.1218 7.52026 26.8683 10.6169 26.8683C13.7135 26.8683 16.2792 29.1218 16.7216 32.0685Z" fill="white"/>
<path d="M12.3863 32.935C12.3863 33.8884 11.5901 34.6685 10.6168 34.6685C9.64356 34.6685 8.84729 33.8884 8.84729 32.935C8.84729 31.9816 9.64356 31.2015 10.6168 31.2015C11.5901 31.2015 12.3863 31.9817 12.3863 32.935Z" fill="white"/>
<path d="M44.2374 32.935C44.2374 33.8884 43.4411 34.6685 42.4679 34.6685C41.4946 34.6685 40.6984 33.8884 40.6984 32.935C40.6984 31.9816 41.4946 31.2015 42.4679 31.2015C43.4411 31.2016 44.2374 31.9817 44.2374 32.935Z" fill="white"/>
<path d="M45.742 14.7341H34.2404C32.9132 14.7341 31.8516 13.6941 31.8516 12.394V6.93372H37.4254C38.6641 6.93372 39.7258 7.45375 40.5221 8.40717L45.742 14.7341ZM33.6211 8.66718V12.394C33.6211 12.7407 33.8865 13.0007 34.2404 13.0007H42.1146L39.1949 9.44712C38.7525 8.92709 38.1333 8.66708 37.4254 8.66708L33.6211 8.66718Z" fill="white"/>
</svg>
